<mxfile host="app.diagrams.net" agent="Mozilla/5.0 (Macintosh; Intel Mac OS X 10_15_7) AppleWebKit/537.36 (KHTML, like Gecko) Chrome/127.0.0.0 Safari/537.36" version="24.7.12">
  <diagram name="Page-1" id="Ebigb-Bm71CrsAPugMe9">
    <mxGraphModel dx="2234" dy="786" grid="0" gridSize="10" guides="1" tooltips="1" connect="1" arrows="1" fold="1" page="0" pageScale="1" pageWidth="827" pageHeight="1169" math="0" shadow="0">
      <root>
        <mxCell id="0" />
        <mxCell id="1" parent="0" />
        <mxCell id="AuG3FRn_L_Xpiaep_0qI-7" value="Dual Running Service" style="rounded=0;whiteSpace=wrap;html=1;" parent="1" vertex="1">
          <mxGeometry x="32" y="388" width="144" height="60" as="geometry" />
        </mxCell>
        <mxCell id="AuG3FRn_L_Xpiaep_0qI-18" value="Livy" style="shape=umlLifeline;perimeter=lifelinePerimeter;whiteSpace=wrap;html=1;container=1;dropTarget=0;collapsible=0;recursiveResize=0;outlineConnect=0;portConstraint=eastwest;newEdgeStyle={&quot;curved&quot;:0,&quot;rounded&quot;:0};" parent="1" vertex="1">
          <mxGeometry x="-214" y="611" width="100" height="575" as="geometry" />
        </mxCell>
        <mxCell id="AuG3FRn_L_Xpiaep_0qI-24" value="DualRunningProcessor" style="html=1;points=[[0,0,0,0,5],[0,1,0,0,-5],[1,0,0,0,5],[1,1,0,0,-5]];perimeter=orthogonalPerimeter;outlineConnect=0;targetShapes=umlLifeline;portConstraint=eastwest;newEdgeStyle={&quot;curved&quot;:0,&quot;rounded&quot;:0};" parent="AuG3FRn_L_Xpiaep_0qI-18" vertex="1">
          <mxGeometry x="45" y="145" width="10" height="80" as="geometry" />
        </mxCell>
        <mxCell id="AuG3FRn_L_Xpiaep_0qI-28" value="SparkConfigServerProcessor" style="html=1;points=[[0,0,0,0,5],[0,1,0,0,-5],[1,0,0,0,5],[1,1,0,0,-5]];perimeter=orthogonalPerimeter;outlineConnect=0;targetShapes=umlLifeline;portConstraint=eastwest;newEdgeStyle={&quot;curved&quot;:0,&quot;rounded&quot;:0};" parent="AuG3FRn_L_Xpiaep_0qI-18" vertex="1">
          <mxGeometry x="45" y="355" width="10" height="80" as="geometry" />
        </mxCell>
        <mxCell id="AuG3FRn_L_Xpiaep_0qI-19" value="" style="shape=umlLifeline;perimeter=lifelinePerimeter;whiteSpace=wrap;html=1;container=1;dropTarget=0;collapsible=0;recursiveResize=0;outlineConnect=0;portConstraint=eastwest;newEdgeStyle={&quot;curved&quot;:0,&quot;rounded&quot;:0};participant=umlActor;" parent="1" vertex="1">
          <mxGeometry x="-362" y="613" width="32" height="571" as="geometry" />
        </mxCell>
        <mxCell id="AuG3FRn_L_Xpiaep_0qI-20" value="Dual Running Service" style="shape=umlLifeline;perimeter=lifelinePerimeter;whiteSpace=wrap;html=1;container=1;dropTarget=0;collapsible=0;recursiveResize=0;outlineConnect=0;portConstraint=eastwest;newEdgeStyle={&quot;curved&quot;:0,&quot;rounded&quot;:0};" parent="1" vertex="1">
          <mxGeometry x="28" y="609" width="100" height="575" as="geometry" />
        </mxCell>
        <mxCell id="AuG3FRn_L_Xpiaep_0qI-26" value="" style="html=1;points=[[0,0,0,0,5],[0,1,0,0,-5],[1,0,0,0,5],[1,1,0,0,-5]];perimeter=orthogonalPerimeter;outlineConnect=0;targetShapes=umlLifeline;portConstraint=eastwest;newEdgeStyle={&quot;curved&quot;:0,&quot;rounded&quot;:0};" parent="AuG3FRn_L_Xpiaep_0qI-20" vertex="1">
          <mxGeometry x="47" y="173" width="10" height="51" as="geometry" />
        </mxCell>
        <mxCell id="AuG3FRn_L_Xpiaep_0qI-23" value="1. Submit job" style="html=1;verticalAlign=bottom;startArrow=oval;startFill=1;endArrow=block;startSize=8;curved=0;rounded=0;" parent="1" target="AuG3FRn_L_Xpiaep_0qI-18" edge="1">
          <mxGeometry width="60" relative="1" as="geometry">
            <mxPoint x="-346" y="754" as="sourcePoint" />
            <mxPoint x="-286" y="754" as="targetPoint" />
          </mxGeometry>
        </mxCell>
        <mxCell id="AuG3FRn_L_Xpiaep_0qI-25" value="2. Request Original run extra configs" style="html=1;verticalAlign=bottom;startArrow=oval;startFill=1;endArrow=block;startSize=8;curved=0;rounded=0;" parent="1" edge="1">
          <mxGeometry width="60" relative="1" as="geometry">
            <mxPoint x="-164" y="779" as="sourcePoint" />
            <mxPoint x="77.5" y="779" as="targetPoint" />
          </mxGeometry>
        </mxCell>
        <mxCell id="AuG3FRn_L_Xpiaep_0qI-27" value="return original job extra configs" style="html=1;verticalAlign=bottom;endArrow=open;dashed=1;endSize=8;curved=0;rounded=0;" parent="1" edge="1">
          <mxGeometry relative="1" as="geometry">
            <mxPoint x="79.5" y="825" as="sourcePoint" />
            <mxPoint x="-163" y="825" as="targetPoint" />
          </mxGeometry>
        </mxCell>
        <mxCell id="AuG3FRn_L_Xpiaep_0qI-29" value="Spark Config Service" style="shape=umlLifeline;perimeter=lifelinePerimeter;whiteSpace=wrap;html=1;container=1;dropTarget=0;collapsible=0;recursiveResize=0;outlineConnect=0;portConstraint=eastwest;newEdgeStyle={&quot;curved&quot;:0,&quot;rounded&quot;:0};" parent="1" vertex="1">
          <mxGeometry x="235" y="611" width="100" height="575" as="geometry" />
        </mxCell>
        <mxCell id="AuG3FRn_L_Xpiaep_0qI-31" value="" style="html=1;points=[[0,0,0,0,5],[0,1,0,0,-5],[1,0,0,0,5],[1,1,0,0,-5]];perimeter=orthogonalPerimeter;outlineConnect=0;targetShapes=umlLifeline;portConstraint=eastwest;newEdgeStyle={&quot;curved&quot;:0,&quot;rounded&quot;:0};" parent="AuG3FRn_L_Xpiaep_0qI-29" vertex="1">
          <mxGeometry x="43" y="375" width="10" height="53" as="geometry" />
        </mxCell>
        <mxCell id="AuG3FRn_L_Xpiaep_0qI-32" value="3. Request Original job new configs" style="html=1;verticalAlign=bottom;endArrow=block;curved=0;rounded=0;entryX=0;entryY=0;entryDx=0;entryDy=5;" parent="1" source="AuG3FRn_L_Xpiaep_0qI-18" target="AuG3FRn_L_Xpiaep_0qI-31" edge="1">
          <mxGeometry relative="1" as="geometry">
            <mxPoint x="210" y="979" as="sourcePoint" />
          </mxGeometry>
        </mxCell>
        <mxCell id="AuG3FRn_L_Xpiaep_0qI-33" value="return new configs" style="html=1;verticalAlign=bottom;endArrow=open;dashed=1;endSize=8;curved=0;rounded=0;exitX=0;exitY=1;exitDx=0;exitDy=-5;" parent="1" source="AuG3FRn_L_Xpiaep_0qI-31" target="AuG3FRn_L_Xpiaep_0qI-18" edge="1">
          <mxGeometry relative="1" as="geometry">
            <mxPoint x="210" y="1049" as="targetPoint" />
          </mxGeometry>
        </mxCell>
        <mxCell id="AuG3FRn_L_Xpiaep_0qI-34" value="return status" style="html=1;verticalAlign=bottom;endArrow=open;dashed=1;endSize=8;curved=0;rounded=0;" parent="1" target="AuG3FRn_L_Xpiaep_0qI-19" edge="1">
          <mxGeometry relative="1" as="geometry">
            <mxPoint x="-164" y="1068" as="sourcePoint" />
            <mxPoint x="-244" y="1068" as="targetPoint" />
          </mxGeometry>
        </mxCell>
        <mxCell id="AuG3FRn_L_Xpiaep_0qI-35" value="AscendLivyEventConsumer" style="shape=umlLifeline;perimeter=lifelinePerimeter;whiteSpace=wrap;html=1;container=1;dropTarget=0;collapsible=0;recursiveResize=0;outlineConnect=0;portConstraint=eastwest;newEdgeStyle={&quot;curved&quot;:0,&quot;rounded&quot;:0};" parent="1" vertex="1">
          <mxGeometry x="-392" y="1305" width="180" height="558" as="geometry" />
        </mxCell>
        <mxCell id="AuG3FRn_L_Xpiaep_0qI-43" value="" style="html=1;points=[[0,0,0,0,5],[0,1,0,0,-5],[1,0,0,0,5],[1,1,0,0,-5]];perimeter=orthogonalPerimeter;outlineConnect=0;targetShapes=umlLifeline;portConstraint=eastwest;newEdgeStyle={&quot;curved&quot;:0,&quot;rounded&quot;:0};" parent="AuG3FRn_L_Xpiaep_0qI-35" vertex="1">
          <mxGeometry x="85" y="200" width="10" height="240" as="geometry" />
        </mxCell>
        <mxCell id="TLrPw7dI0EC6EL-AitkG-3" value="" style="html=1;points=[[0,0,0,0,5],[0,1,0,0,-5],[1,0,0,0,5],[1,1,0,0,-5]];perimeter=orthogonalPerimeter;outlineConnect=0;targetShapes=umlLifeline;portConstraint=eastwest;newEdgeStyle={&quot;curved&quot;:0,&quot;rounded&quot;:0};" vertex="1" parent="AuG3FRn_L_Xpiaep_0qI-35">
          <mxGeometry x="85" y="108" width="10" height="40" as="geometry" />
        </mxCell>
        <mxCell id="TLrPw7dI0EC6EL-AitkG-4" value="Continue consume livy events" style="html=1;align=left;spacingLeft=2;endArrow=block;rounded=0;edgeStyle=orthogonalEdgeStyle;curved=0;rounded=0;" edge="1" target="TLrPw7dI0EC6EL-AitkG-3" parent="AuG3FRn_L_Xpiaep_0qI-35">
          <mxGeometry x="0.9529" y="-14" relative="1" as="geometry">
            <mxPoint x="90" y="88" as="sourcePoint" />
            <Array as="points">
              <mxPoint x="120" y="118" />
            </Array>
            <mxPoint as="offset" />
          </mxGeometry>
        </mxCell>
        <mxCell id="AuG3FRn_L_Xpiaep_0qI-46" value="AscendDualRunManager" style="shape=umlLifeline;perimeter=lifelinePerimeter;whiteSpace=wrap;html=1;container=1;dropTarget=0;collapsible=0;recursiveResize=0;outlineConnect=0;portConstraint=eastwest;newEdgeStyle={&quot;curved&quot;:0,&quot;rounded&quot;:0};" parent="1" vertex="1">
          <mxGeometry x="-143" y="1305" width="156" height="645" as="geometry" />
        </mxCell>
        <mxCell id="AuG3FRn_L_Xpiaep_0qI-47" value="" style="html=1;points=[[0,0,0,0,5],[0,1,0,0,-5],[1,0,0,0,5],[1,1,0,0,-5]];perimeter=orthogonalPerimeter;outlineConnect=0;targetShapes=umlLifeline;portConstraint=eastwest;newEdgeStyle={&quot;curved&quot;:0,&quot;rounded&quot;:0};" parent="AuG3FRn_L_Xpiaep_0qI-46" vertex="1">
          <mxGeometry x="73" y="198" width="10" height="229" as="geometry" />
        </mxCell>
        <mxCell id="KbIHMXOwM4G_5358gfrq-24" value="" style="html=1;points=[[0,0,0,0,5],[0,1,0,0,-5],[1,0,0,0,5],[1,1,0,0,-5]];perimeter=orthogonalPerimeter;outlineConnect=0;targetShapes=umlLifeline;portConstraint=eastwest;newEdgeStyle={&quot;curved&quot;:0,&quot;rounded&quot;:0};" parent="AuG3FRn_L_Xpiaep_0qI-46" vertex="1">
          <mxGeometry x="73" y="477" width="10" height="40" as="geometry" />
        </mxCell>
        <mxCell id="KbIHMXOwM4G_5358gfrq-25" value="Take task from&amp;nbsp;&lt;div&gt;the dualRun queue&lt;/div&gt;" style="html=1;align=left;spacingLeft=2;endArrow=block;rounded=0;edgeStyle=orthogonalEdgeStyle;curved=0;rounded=0;" parent="AuG3FRn_L_Xpiaep_0qI-46" target="KbIHMXOwM4G_5358gfrq-24" edge="1">
          <mxGeometry relative="1" as="geometry">
            <mxPoint x="81" y="462" as="sourcePoint" />
            <Array as="points">
              <mxPoint x="103" y="490" />
            </Array>
          </mxGeometry>
        </mxCell>
        <mxCell id="AuG3FRn_L_Xpiaep_0qI-49" value="1. Check if enabled dual running" style="html=1;verticalAlign=bottom;endArrow=block;curved=0;rounded=0;" parent="1" target="AuG3FRn_L_Xpiaep_0qI-46" edge="1" source="AuG3FRn_L_Xpiaep_0qI-35">
          <mxGeometry width="80" relative="1" as="geometry">
            <mxPoint x="-275" y="1501" as="sourcePoint" />
            <mxPoint x="-195" y="1501" as="targetPoint" />
            <Array as="points">
              <mxPoint x="-242" y="1520" />
            </Array>
          </mxGeometry>
        </mxCell>
        <mxCell id="AuG3FRn_L_Xpiaep_0qI-52" value="AscendTaskStore" style="shape=umlLifeline;perimeter=lifelinePerimeter;whiteSpace=wrap;html=1;container=1;dropTarget=0;collapsible=0;recursiveResize=0;outlineConnect=0;portConstraint=eastwest;newEdgeStyle={&quot;curved&quot;:0,&quot;rounded&quot;:0};" parent="1" vertex="1">
          <mxGeometry x="395" y="1305" width="100" height="657" as="geometry" />
        </mxCell>
        <mxCell id="AuG3FRn_L_Xpiaep_0qI-53" value="" style="html=1;points=[[0,0,0,0,5],[0,1,0,0,-5],[1,0,0,0,5],[1,1,0,0,-5]];perimeter=orthogonalPerimeter;outlineConnect=0;targetShapes=umlLifeline;portConstraint=eastwest;newEdgeStyle={&quot;curved&quot;:0,&quot;rounded&quot;:0};" parent="AuG3FRn_L_Xpiaep_0qI-52" vertex="1">
          <mxGeometry x="45" y="200" width="10" height="35" as="geometry" />
        </mxCell>
        <mxCell id="AuG3FRn_L_Xpiaep_0qI-56" value="" style="html=1;points=[[0,0,0,0,5],[0,1,0,0,-5],[1,0,0,0,5],[1,1,0,0,-5]];perimeter=orthogonalPerimeter;outlineConnect=0;targetShapes=umlLifeline;portConstraint=eastwest;newEdgeStyle={&quot;curved&quot;:0,&quot;rounded&quot;:0};" parent="AuG3FRn_L_Xpiaep_0qI-52" vertex="1">
          <mxGeometry x="45" y="260" width="10" height="62" as="geometry" />
        </mxCell>
        <mxCell id="KbIHMXOwM4G_5358gfrq-26" value="" style="html=1;points=[[0,0,0,0,5],[0,1,0,0,-5],[1,0,0,0,5],[1,1,0,0,-5]];perimeter=orthogonalPerimeter;outlineConnect=0;targetShapes=umlLifeline;portConstraint=eastwest;newEdgeStyle={&quot;curved&quot;:0,&quot;rounded&quot;:0};" parent="AuG3FRn_L_Xpiaep_0qI-52" vertex="1">
          <mxGeometry x="45" y="476" width="10" height="27" as="geometry" />
        </mxCell>
        <mxCell id="KbIHMXOwM4G_5358gfrq-29" value="" style="html=1;points=[[0,0,0,0,5],[0,1,0,0,-5],[1,0,0,0,5],[1,1,0,0,-5]];perimeter=orthogonalPerimeter;outlineConnect=0;targetShapes=umlLifeline;portConstraint=eastwest;newEdgeStyle={&quot;curved&quot;:0,&quot;rounded&quot;:0};" parent="AuG3FRn_L_Xpiaep_0qI-52" vertex="1">
          <mxGeometry x="45" y="528" width="10" height="37" as="geometry" />
        </mxCell>
        <mxCell id="KbIHMXOwM4G_5358gfrq-32" value="" style="html=1;points=[[0,0,0,0,5],[0,1,0,0,-5],[1,0,0,0,5],[1,1,0,0,-5]];perimeter=orthogonalPerimeter;outlineConnect=0;targetShapes=umlLifeline;portConstraint=eastwest;newEdgeStyle={&quot;curved&quot;:0,&quot;rounded&quot;:0};" parent="AuG3FRn_L_Xpiaep_0qI-52" vertex="1">
          <mxGeometry x="45" y="583" width="10" height="35" as="geometry" />
        </mxCell>
        <mxCell id="AuG3FRn_L_Xpiaep_0qI-54" value="1.1 Should enable dual run" style="html=1;verticalAlign=bottom;endArrow=block;curved=0;rounded=0;" parent="1" target="AuG3FRn_L_Xpiaep_0qI-53" edge="1" source="AuG3FRn_L_Xpiaep_0qI-46">
          <mxGeometry x="-0.5126" y="3" width="80" relative="1" as="geometry">
            <mxPoint x="-38" y="1509" as="sourcePoint" />
            <mxPoint x="42" y="1509" as="targetPoint" />
            <mxPoint as="offset" />
            <Array as="points">
              <mxPoint x="181" y="1511" />
            </Array>
          </mxGeometry>
        </mxCell>
        <mxCell id="AuG3FRn_L_Xpiaep_0qI-55" value="return" style="html=1;verticalAlign=bottom;endArrow=open;dashed=1;endSize=8;curved=0;rounded=0;exitX=0;exitY=1;exitDx=0;exitDy=-5;exitPerimeter=0;" parent="1" source="AuG3FRn_L_Xpiaep_0qI-53" target="AuG3FRn_L_Xpiaep_0qI-46" edge="1">
          <mxGeometry x="0.6109" relative="1" as="geometry">
            <mxPoint x="190" y="1542" as="sourcePoint" />
            <mxPoint x="110" y="1542" as="targetPoint" />
            <mxPoint as="offset" />
          </mxGeometry>
        </mxCell>
        <mxCell id="AuG3FRn_L_Xpiaep_0qI-57" value="1.2 Initialize new task status" style="html=1;verticalAlign=bottom;endArrow=block;curved=0;rounded=0;entryX=0;entryY=0;entryDx=0;entryDy=5;" parent="1" source="AuG3FRn_L_Xpiaep_0qI-46" target="AuG3FRn_L_Xpiaep_0qI-56" edge="1">
          <mxGeometry x="-0.5142" y="2" relative="1" as="geometry">
            <mxPoint x="117" y="1570" as="sourcePoint" />
            <mxPoint x="1" as="offset" />
          </mxGeometry>
        </mxCell>
        <mxCell id="AuG3FRn_L_Xpiaep_0qI-58" value="return" style="html=1;verticalAlign=bottom;endArrow=open;dashed=1;endSize=8;curved=0;rounded=0;exitX=0;exitY=1;exitDx=0;exitDy=-5;" parent="1" source="AuG3FRn_L_Xpiaep_0qI-56" target="AuG3FRn_L_Xpiaep_0qI-46" edge="1">
          <mxGeometry x="0.6067" y="-4" relative="1" as="geometry">
            <mxPoint x="117" y="1640" as="targetPoint" />
            <mxPoint as="offset" />
          </mxGeometry>
        </mxCell>
        <mxCell id="AuG3FRn_L_Xpiaep_0qI-59" value="AscendDualRunQueue" style="shape=umlLifeline;perimeter=lifelinePerimeter;whiteSpace=wrap;html=1;container=1;dropTarget=0;collapsible=0;recursiveResize=0;outlineConnect=0;portConstraint=eastwest;newEdgeStyle={&quot;curved&quot;:0,&quot;rounded&quot;:0};" parent="1" vertex="1">
          <mxGeometry x="147" y="1305" width="139" height="648" as="geometry" />
        </mxCell>
        <mxCell id="AuG3FRn_L_Xpiaep_0qI-62" value="" style="html=1;points=[[0,0,0,0,5],[0,1,0,0,-5],[1,0,0,0,5],[1,1,0,0,-5]];perimeter=orthogonalPerimeter;outlineConnect=0;targetShapes=umlLifeline;portConstraint=eastwest;newEdgeStyle={&quot;curved&quot;:0,&quot;rounded&quot;:0};" parent="AuG3FRn_L_Xpiaep_0qI-59" vertex="1">
          <mxGeometry x="64.5" y="338" width="10" height="58" as="geometry" />
        </mxCell>
        <mxCell id="AuG3FRn_L_Xpiaep_0qI-63" value="1.3 Initialize DualRunTask and send it to Queue" style="html=1;verticalAlign=bottom;endArrow=block;curved=0;rounded=0;entryX=0;entryY=0;entryDx=0;entryDy=5;" parent="1" source="AuG3FRn_L_Xpiaep_0qI-46" target="AuG3FRn_L_Xpiaep_0qI-62" edge="1">
          <mxGeometry relative="1" as="geometry">
            <mxPoint x="334" y="1651" as="sourcePoint" />
          </mxGeometry>
        </mxCell>
        <mxCell id="AuG3FRn_L_Xpiaep_0qI-64" value="return" style="html=1;verticalAlign=bottom;endArrow=open;dashed=1;endSize=8;curved=0;rounded=0;exitX=0;exitY=1;exitDx=0;exitDy=-5;" parent="1" source="AuG3FRn_L_Xpiaep_0qI-62" target="AuG3FRn_L_Xpiaep_0qI-46" edge="1">
          <mxGeometry relative="1" as="geometry">
            <mxPoint x="334" y="1721" as="targetPoint" />
          </mxGeometry>
        </mxCell>
        <mxCell id="AuG3FRn_L_Xpiaep_0qI-65" value="Dual Running Validation Manager" style="shape=umlLifeline;perimeter=lifelinePerimeter;whiteSpace=wrap;html=1;container=1;dropTarget=0;collapsible=0;recursiveResize=0;outlineConnect=0;portConstraint=eastwest;newEdgeStyle={&quot;curved&quot;:0,&quot;rounded&quot;:0};" parent="1" vertex="1">
          <mxGeometry x="7" y="2038" width="100" height="777" as="geometry" />
        </mxCell>
        <mxCell id="DmJoxFddULVMHlRJaVPf-3" value="" style="html=1;points=[[0,0,0,0,5],[0,1,0,0,-5],[1,0,0,0,5],[1,1,0,0,-5]];perimeter=orthogonalPerimeter;outlineConnect=0;targetShapes=umlLifeline;portConstraint=eastwest;newEdgeStyle={&quot;curved&quot;:0,&quot;rounded&quot;:0};" parent="AuG3FRn_L_Xpiaep_0qI-65" vertex="1">
          <mxGeometry x="45" y="339" width="10" height="387" as="geometry" />
        </mxCell>
        <mxCell id="DmJoxFddULVMHlRJaVPf-4" value="Continue consume validation queue" style="html=1;align=left;spacingLeft=2;endArrow=block;rounded=0;edgeStyle=orthogonalEdgeStyle;curved=0;rounded=0;" parent="AuG3FRn_L_Xpiaep_0qI-65" target="DmJoxFddULVMHlRJaVPf-3" edge="1">
          <mxGeometry relative="1" as="geometry">
            <mxPoint x="50" y="319" as="sourcePoint" />
            <Array as="points">
              <mxPoint x="80" y="349" />
            </Array>
          </mxGeometry>
        </mxCell>
        <mxCell id="AuG3FRn_L_Xpiaep_0qI-66" value="Dual Running Kafka Consumer" style="shape=umlLifeline;perimeter=lifelinePerimeter;whiteSpace=wrap;html=1;container=1;dropTarget=0;collapsible=0;recursiveResize=0;outlineConnect=0;portConstraint=eastwest;newEdgeStyle={&quot;curved&quot;:0,&quot;rounded&quot;:0};" parent="1" vertex="1">
          <mxGeometry x="-469" y="2038" width="100" height="759" as="geometry" />
        </mxCell>
        <mxCell id="AuG3FRn_L_Xpiaep_0qI-69" value="" style="html=1;points=[[0,0,0,0,5],[0,1,0,0,-5],[1,0,0,0,5],[1,1,0,0,-5]];perimeter=orthogonalPerimeter;outlineConnect=0;targetShapes=umlLifeline;portConstraint=eastwest;newEdgeStyle={&quot;curved&quot;:0,&quot;rounded&quot;:0};" parent="AuG3FRn_L_Xpiaep_0qI-66" vertex="1">
          <mxGeometry x="46" y="151" width="10" height="40" as="geometry" />
        </mxCell>
        <mxCell id="AuG3FRn_L_Xpiaep_0qI-70" value="Continues read kafka message" style="html=1;align=left;spacingLeft=2;endArrow=block;rounded=0;edgeStyle=orthogonalEdgeStyle;curved=0;rounded=0;" parent="AuG3FRn_L_Xpiaep_0qI-66" target="AuG3FRn_L_Xpiaep_0qI-69" edge="1">
          <mxGeometry relative="1" as="geometry">
            <mxPoint x="51" y="131" as="sourcePoint" />
            <Array as="points">
              <mxPoint x="81" y="161" />
            </Array>
          </mxGeometry>
        </mxCell>
        <mxCell id="AuG3FRn_L_Xpiaep_0qI-74" value="" style="html=1;points=[[0,0,0,0,5],[0,1,0,0,-5],[1,0,0,0,5],[1,1,0,0,-5]];perimeter=orthogonalPerimeter;outlineConnect=0;targetShapes=umlLifeline;portConstraint=eastwest;newEdgeStyle={&quot;curved&quot;:0,&quot;rounded&quot;:0};" parent="AuG3FRn_L_Xpiaep_0qI-66" vertex="1">
          <mxGeometry x="46" y="247" width="10" height="80" as="geometry" />
        </mxCell>
        <mxCell id="AuG3FRn_L_Xpiaep_0qI-75" value="Pack 1) original Run 2) dual run to build Validation context" style="text;html=1;align=center;verticalAlign=middle;whiteSpace=wrap;rounded=0;" parent="1" vertex="1">
          <mxGeometry x="-523" y="2288" width="325" height="30" as="geometry" />
        </mxCell>
        <mxCell id="DmJoxFddULVMHlRJaVPf-1" value="Dual Running Validation Queue" style="shape=umlLifeline;perimeter=lifelinePerimeter;whiteSpace=wrap;html=1;container=1;dropTarget=0;collapsible=0;recursiveResize=0;outlineConnect=0;portConstraint=eastwest;newEdgeStyle={&quot;curved&quot;:0,&quot;rounded&quot;:0};" parent="1" vertex="1">
          <mxGeometry x="-217" y="2038" width="100" height="768" as="geometry" />
        </mxCell>
        <mxCell id="DmJoxFddULVMHlRJaVPf-2" value="Send to validation queue" style="html=1;verticalAlign=bottom;endArrow=block;curved=0;rounded=0;" parent="1" target="DmJoxFddULVMHlRJaVPf-1" edge="1">
          <mxGeometry width="80" relative="1" as="geometry">
            <mxPoint x="-419" y="2351" as="sourcePoint" />
            <mxPoint x="-339" y="2351" as="targetPoint" />
          </mxGeometry>
        </mxCell>
        <mxCell id="DmJoxFddULVMHlRJaVPf-5" value="Dual Running Task Store" style="shape=umlLifeline;perimeter=lifelinePerimeter;whiteSpace=wrap;html=1;container=1;dropTarget=0;collapsible=0;recursiveResize=0;outlineConnect=0;portConstraint=eastwest;newEdgeStyle={&quot;curved&quot;:0,&quot;rounded&quot;:0};" parent="1" vertex="1">
          <mxGeometry x="289" y="2036" width="100" height="765" as="geometry" />
        </mxCell>
        <mxCell id="DmJoxFddULVMHlRJaVPf-9" value="" style="html=1;points=[[0,0,0,0,5],[0,1,0,0,-5],[1,0,0,0,5],[1,1,0,0,-5]];perimeter=orthogonalPerimeter;outlineConnect=0;targetShapes=umlLifeline;portConstraint=eastwest;newEdgeStyle={&quot;curved&quot;:0,&quot;rounded&quot;:0};" parent="DmJoxFddULVMHlRJaVPf-5" vertex="1">
          <mxGeometry x="45" y="391" width="10" height="56" as="geometry" />
        </mxCell>
        <mxCell id="DmJoxFddULVMHlRJaVPf-16" value="" style="html=1;points=[[0,0,0,0,5],[0,1,0,0,-5],[1,0,0,0,5],[1,1,0,0,-5]];perimeter=orthogonalPerimeter;outlineConnect=0;targetShapes=umlLifeline;portConstraint=eastwest;newEdgeStyle={&quot;curved&quot;:0,&quot;rounded&quot;:0};" parent="DmJoxFddULVMHlRJaVPf-5" vertex="1">
          <mxGeometry x="45" y="555" width="10" height="80" as="geometry" />
        </mxCell>
        <mxCell id="DmJoxFddULVMHlRJaVPf-8" value="Update Task status to validating" style="html=1;verticalAlign=bottom;endArrow=block;curved=0;rounded=0;" parent="1" target="DmJoxFddULVMHlRJaVPf-5" edge="1">
          <mxGeometry width="80" relative="1" as="geometry">
            <mxPoint x="58" y="2423" as="sourcePoint" />
            <mxPoint x="138" y="2423" as="targetPoint" />
          </mxGeometry>
        </mxCell>
        <mxCell id="DmJoxFddULVMHlRJaVPf-10" value="return" style="html=1;verticalAlign=bottom;endArrow=open;dashed=1;endSize=8;curved=0;rounded=0;" parent="1" target="AuG3FRn_L_Xpiaep_0qI-65" edge="1">
          <mxGeometry relative="1" as="geometry">
            <mxPoint x="364" y="2489" as="sourcePoint" />
            <mxPoint x="284" y="2489" as="targetPoint" />
          </mxGeometry>
        </mxCell>
        <mxCell id="DmJoxFddULVMHlRJaVPf-11" value="Dual Running Validation Runner" style="shape=umlLifeline;perimeter=lifelinePerimeter;whiteSpace=wrap;html=1;container=1;dropTarget=0;collapsible=0;recursiveResize=0;outlineConnect=0;portConstraint=eastwest;newEdgeStyle={&quot;curved&quot;:0,&quot;rounded&quot;:0};" parent="1" vertex="1">
          <mxGeometry x="471" y="2038" width="100" height="776" as="geometry" />
        </mxCell>
        <mxCell id="DmJoxFddULVMHlRJaVPf-13" value="" style="html=1;points=[[0,0,0,0,5],[0,1,0,0,-5],[1,0,0,0,5],[1,1,0,0,-5]];perimeter=orthogonalPerimeter;outlineConnect=0;targetShapes=umlLifeline;portConstraint=eastwest;newEdgeStyle={&quot;curved&quot;:0,&quot;rounded&quot;:0};" parent="DmJoxFddULVMHlRJaVPf-11" vertex="1">
          <mxGeometry x="45" y="483" width="10" height="58" as="geometry" />
        </mxCell>
        <mxCell id="DmJoxFddULVMHlRJaVPf-14" value="Set up validation runner with validation context" style="html=1;verticalAlign=bottom;endArrow=block;curved=0;rounded=0;entryX=0;entryY=0;entryDx=0;entryDy=5;" parent="1" source="AuG3FRn_L_Xpiaep_0qI-65" target="DmJoxFddULVMHlRJaVPf-13" edge="1">
          <mxGeometry relative="1" as="geometry">
            <mxPoint x="551" y="2526" as="sourcePoint" />
          </mxGeometry>
        </mxCell>
        <mxCell id="DmJoxFddULVMHlRJaVPf-15" value="return validation result" style="html=1;verticalAlign=bottom;endArrow=open;dashed=1;endSize=8;curved=0;rounded=0;exitX=0;exitY=1;exitDx=0;exitDy=-5;" parent="1" source="DmJoxFddULVMHlRJaVPf-13" target="AuG3FRn_L_Xpiaep_0qI-65" edge="1">
          <mxGeometry relative="1" as="geometry">
            <mxPoint x="551" y="2596" as="targetPoint" />
          </mxGeometry>
        </mxCell>
        <mxCell id="DmJoxFddULVMHlRJaVPf-17" value="Update validation result to store" style="html=1;verticalAlign=bottom;endArrow=block;curved=0;rounded=0;entryX=0;entryY=0;entryDx=0;entryDy=5;" parent="1" source="AuG3FRn_L_Xpiaep_0qI-65" target="DmJoxFddULVMHlRJaVPf-16" edge="1">
          <mxGeometry relative="1" as="geometry">
            <mxPoint x="290" y="2598" as="sourcePoint" />
          </mxGeometry>
        </mxCell>
        <mxCell id="DmJoxFddULVMHlRJaVPf-18" value="return" style="html=1;verticalAlign=bottom;endArrow=open;dashed=1;endSize=8;curved=0;rounded=0;exitX=0;exitY=1;exitDx=0;exitDy=-5;" parent="1" source="DmJoxFddULVMHlRJaVPf-16" target="AuG3FRn_L_Xpiaep_0qI-65" edge="1">
          <mxGeometry relative="1" as="geometry">
            <mxPoint x="290" y="2668" as="targetPoint" />
          </mxGeometry>
        </mxCell>
        <mxCell id="DmJoxFddULVMHlRJaVPf-22" value="Spark Config Server" style="shape=umlLifeline;perimeter=lifelinePerimeter;whiteSpace=wrap;html=1;container=1;dropTarget=0;collapsible=0;recursiveResize=0;outlineConnect=0;portConstraint=eastwest;newEdgeStyle={&quot;curved&quot;:0,&quot;rounded&quot;:0};" parent="1" vertex="1">
          <mxGeometry x="651" y="2038" width="100" height="782" as="geometry" />
        </mxCell>
        <mxCell id="DmJoxFddULVMHlRJaVPf-23" value="" style="html=1;points=[[0,0,0,0,5],[0,1,0,0,-5],[1,0,0,0,5],[1,1,0,0,-5]];perimeter=orthogonalPerimeter;outlineConnect=0;targetShapes=umlLifeline;portConstraint=eastwest;newEdgeStyle={&quot;curved&quot;:0,&quot;rounded&quot;:0};" parent="DmJoxFddULVMHlRJaVPf-22" vertex="1">
          <mxGeometry x="47" y="659" width="10" height="58" as="geometry" />
        </mxCell>
        <mxCell id="DmJoxFddULVMHlRJaVPf-24" value="Update configures to Spark Config Server" style="html=1;verticalAlign=bottom;endArrow=block;curved=0;rounded=0;" parent="1" target="DmJoxFddULVMHlRJaVPf-22" edge="1">
          <mxGeometry width="80" relative="1" as="geometry">
            <mxPoint x="61" y="2699" as="sourcePoint" />
            <mxPoint x="141" y="2699" as="targetPoint" />
          </mxGeometry>
        </mxCell>
        <mxCell id="btJ12CXPb4DE6qDq3Y4i-8" value="" style="edgeStyle=orthogonalEdgeStyle;rounded=0;orthogonalLoop=1;jettySize=auto;html=1;" parent="1" source="btJ12CXPb4DE6qDq3Y4i-6" target="btJ12CXPb4DE6qDq3Y4i-7" edge="1">
          <mxGeometry relative="1" as="geometry" />
        </mxCell>
        <mxCell id="btJ12CXPb4DE6qDq3Y4i-6" value="New" style="rounded=1;whiteSpace=wrap;html=1;" parent="1" vertex="1">
          <mxGeometry x="-417" y="2908" width="120" height="60" as="geometry" />
        </mxCell>
        <mxCell id="btJ12CXPb4DE6qDq3Y4i-10" value="" style="edgeStyle=orthogonalEdgeStyle;rounded=0;orthogonalLoop=1;jettySize=auto;html=1;exitX=0.5;exitY=0;exitDx=0;exitDy=0;entryX=0.5;entryY=1;entryDx=0;entryDy=0;dashed=1;" parent="1" source="btJ12CXPb4DE6qDq3Y4i-7" target="btJ12CXPb4DE6qDq3Y4i-9" edge="1">
          <mxGeometry relative="1" as="geometry" />
        </mxCell>
        <mxCell id="btJ12CXPb4DE6qDq3Y4i-12" value="" style="edgeStyle=orthogonalEdgeStyle;rounded=0;orthogonalLoop=1;jettySize=auto;html=1;" parent="1" source="btJ12CXPb4DE6qDq3Y4i-7" target="btJ12CXPb4DE6qDq3Y4i-11" edge="1">
          <mxGeometry relative="1" as="geometry" />
        </mxCell>
        <mxCell id="btJ12CXPb4DE6qDq3Y4i-7" value="Dual Running" style="whiteSpace=wrap;html=1;rounded=1;" parent="1" vertex="1">
          <mxGeometry x="-217" y="2908" width="120" height="60" as="geometry" />
        </mxCell>
        <mxCell id="btJ12CXPb4DE6qDq3Y4i-9" value="Dual Run Failed" style="whiteSpace=wrap;html=1;rounded=1;dashed=1;" parent="1" vertex="1">
          <mxGeometry x="-217" y="2810" width="120" height="60" as="geometry" />
        </mxCell>
        <mxCell id="btJ12CXPb4DE6qDq3Y4i-14" value="" style="edgeStyle=orthogonalEdgeStyle;rounded=0;orthogonalLoop=1;jettySize=auto;html=1;" parent="1" source="btJ12CXPb4DE6qDq3Y4i-11" target="btJ12CXPb4DE6qDq3Y4i-13" edge="1">
          <mxGeometry relative="1" as="geometry" />
        </mxCell>
        <mxCell id="btJ12CXPb4DE6qDq3Y4i-11" value="WaitingForValidating" style="whiteSpace=wrap;html=1;rounded=1;" parent="1" vertex="1">
          <mxGeometry x="-17" y="2908" width="120" height="60" as="geometry" />
        </mxCell>
        <mxCell id="btJ12CXPb4DE6qDq3Y4i-16" value="" style="edgeStyle=orthogonalEdgeStyle;rounded=0;orthogonalLoop=1;jettySize=auto;html=1;dashed=1;" parent="1" source="btJ12CXPb4DE6qDq3Y4i-13" target="btJ12CXPb4DE6qDq3Y4i-15" edge="1">
          <mxGeometry relative="1" as="geometry" />
        </mxCell>
        <mxCell id="btJ12CXPb4DE6qDq3Y4i-18" value="" style="edgeStyle=orthogonalEdgeStyle;rounded=0;orthogonalLoop=1;jettySize=auto;html=1;" parent="1" source="btJ12CXPb4DE6qDq3Y4i-13" target="btJ12CXPb4DE6qDq3Y4i-17" edge="1">
          <mxGeometry relative="1" as="geometry" />
        </mxCell>
        <mxCell id="btJ12CXPb4DE6qDq3Y4i-13" value="Validating" style="whiteSpace=wrap;html=1;rounded=1;" parent="1" vertex="1">
          <mxGeometry x="183" y="2908" width="120" height="60" as="geometry" />
        </mxCell>
        <mxCell id="btJ12CXPb4DE6qDq3Y4i-15" value="ValidatingFailed" style="whiteSpace=wrap;html=1;rounded=1;dashed=1;" parent="1" vertex="1">
          <mxGeometry x="183" y="2810" width="120" height="60" as="geometry" />
        </mxCell>
        <mxCell id="btJ12CXPb4DE6qDq3Y4i-17" value="Finished" style="whiteSpace=wrap;html=1;rounded=1;" parent="1" vertex="1">
          <mxGeometry x="383" y="2908" width="120" height="60" as="geometry" />
        </mxCell>
        <mxCell id="KbIHMXOwM4G_5358gfrq-5" value="" style="edgeStyle=orthogonalEdgeStyle;rounded=0;orthogonalLoop=1;jettySize=auto;html=1;" parent="1" source="KbIHMXOwM4G_5358gfrq-1" edge="1">
          <mxGeometry relative="1" as="geometry">
            <mxPoint x="-42" y="3282" as="targetPoint" />
          </mxGeometry>
        </mxCell>
        <mxCell id="KbIHMXOwM4G_5358gfrq-8" value="If task is Dual Run Failed Or Finished" style="edgeLabel;html=1;align=center;verticalAlign=middle;resizable=0;points=[];" parent="KbIHMXOwM4G_5358gfrq-5" vertex="1" connectable="0">
          <mxGeometry x="-0.1305" y="-3" relative="1" as="geometry">
            <mxPoint x="3" y="-2" as="offset" />
          </mxGeometry>
        </mxCell>
        <mxCell id="KbIHMXOwM4G_5358gfrq-10" value="" style="edgeStyle=orthogonalEdgeStyle;rounded=0;orthogonalLoop=1;jettySize=auto;html=1;" parent="1" source="KbIHMXOwM4G_5358gfrq-1" target="KbIHMXOwM4G_5358gfrq-9" edge="1">
          <mxGeometry relative="1" as="geometry" />
        </mxCell>
        <mxCell id="KbIHMXOwM4G_5358gfrq-1" value="TaskStore" style="rounded=1;whiteSpace=wrap;html=1;" parent="1" vertex="1">
          <mxGeometry x="-102" y="3142" width="120" height="60" as="geometry" />
        </mxCell>
        <mxCell id="KbIHMXOwM4G_5358gfrq-3" value="" style="edgeStyle=orthogonalEdgeStyle;rounded=0;orthogonalLoop=1;jettySize=auto;html=1;" parent="1" source="KbIHMXOwM4G_5358gfrq-2" target="KbIHMXOwM4G_5358gfrq-1" edge="1">
          <mxGeometry relative="1" as="geometry" />
        </mxCell>
        <mxCell id="KbIHMXOwM4G_5358gfrq-2" value="Partial Context Msg" style="text;html=1;align=center;verticalAlign=middle;whiteSpace=wrap;rounded=0;" parent="1" vertex="1">
          <mxGeometry x="-271" y="3157" width="129" height="30" as="geometry" />
        </mxCell>
        <mxCell id="KbIHMXOwM4G_5358gfrq-7" value="" style="shape=image;html=1;verticalAlign=top;verticalLabelPosition=bottom;labelBackgroundColor=#ffffff;imageAspect=0;aspect=fixed;image=https://cdn4.iconfinder.com/data/icons/ionicons/512/icon-ios7-trash-outline-128.png" parent="1" vertex="1">
          <mxGeometry x="-75.5" y="3281" width="67" height="67" as="geometry" />
        </mxCell>
        <mxCell id="KbIHMXOwM4G_5358gfrq-12" value="" style="edgeStyle=orthogonalEdgeStyle;rounded=0;orthogonalLoop=1;jettySize=auto;html=1;" parent="1" source="KbIHMXOwM4G_5358gfrq-9" target="KbIHMXOwM4G_5358gfrq-11" edge="1">
          <mxGeometry relative="1" as="geometry" />
        </mxCell>
        <mxCell id="KbIHMXOwM4G_5358gfrq-13" value="If context is complete&lt;div&gt;&amp;amp; task is waitingForValidating&lt;/div&gt;" style="edgeLabel;html=1;align=center;verticalAlign=middle;resizable=0;points=[];" parent="KbIHMXOwM4G_5358gfrq-12" vertex="1" connectable="0">
          <mxGeometry x="-0.3591" y="-2" relative="1" as="geometry">
            <mxPoint x="28" y="-2" as="offset" />
          </mxGeometry>
        </mxCell>
        <mxCell id="KbIHMXOwM4G_5358gfrq-9" value="validationContexts" style="whiteSpace=wrap;html=1;rounded=1;" parent="1" vertex="1">
          <mxGeometry x="98" y="3142" width="141" height="61" as="geometry" />
        </mxCell>
        <mxCell id="KbIHMXOwM4G_5358gfrq-11" value="ValidationQueue" style="whiteSpace=wrap;html=1;rounded=1;" parent="1" vertex="1">
          <mxGeometry x="427" y="3143" width="155.5" height="60" as="geometry" />
        </mxCell>
        <mxCell id="KbIHMXOwM4G_5358gfrq-16" value="" style="edgeStyle=orthogonalEdgeStyle;rounded=0;orthogonalLoop=1;jettySize=auto;html=1;" parent="1" source="KbIHMXOwM4G_5358gfrq-14" target="KbIHMXOwM4G_5358gfrq-15" edge="1">
          <mxGeometry relative="1" as="geometry" />
        </mxCell>
        <mxCell id="KbIHMXOwM4G_5358gfrq-14" value="Notify task status" style="text;html=1;align=center;verticalAlign=middle;whiteSpace=wrap;rounded=0;" parent="1" vertex="1">
          <mxGeometry x="-256.5" y="3448" width="100" height="30" as="geometry" />
        </mxCell>
        <mxCell id="KbIHMXOwM4G_5358gfrq-18" value="" style="edgeStyle=orthogonalEdgeStyle;rounded=0;orthogonalLoop=1;jettySize=auto;html=1;" parent="1" source="KbIHMXOwM4G_5358gfrq-15" target="KbIHMXOwM4G_5358gfrq-17" edge="1">
          <mxGeometry relative="1" as="geometry" />
        </mxCell>
        <mxCell id="KbIHMXOwM4G_5358gfrq-19" value="If context is complete&lt;div&gt;&amp;amp; task is waitingForValidating&lt;/div&gt;" style="edgeLabel;html=1;align=center;verticalAlign=middle;resizable=0;points=[];" parent="KbIHMXOwM4G_5358gfrq-18" vertex="1" connectable="0">
          <mxGeometry x="-0.2082" y="1" relative="1" as="geometry">
            <mxPoint x="15" y="1" as="offset" />
          </mxGeometry>
        </mxCell>
        <mxCell id="KbIHMXOwM4G_5358gfrq-21" value="" style="edgeStyle=orthogonalEdgeStyle;rounded=0;orthogonalLoop=1;jettySize=auto;html=1;" parent="1" source="KbIHMXOwM4G_5358gfrq-15" edge="1">
          <mxGeometry relative="1" as="geometry">
            <mxPoint x="-26.5" y="3573" as="targetPoint" />
          </mxGeometry>
        </mxCell>
        <mxCell id="KbIHMXOwM4G_5358gfrq-22" value="If task is Dual Run Failed Or Finished" style="edgeLabel;html=1;align=center;verticalAlign=middle;resizable=0;points=[];" parent="KbIHMXOwM4G_5358gfrq-21" vertex="1" connectable="0">
          <mxGeometry x="-0.15" relative="1" as="geometry">
            <mxPoint as="offset" />
          </mxGeometry>
        </mxCell>
        <mxCell id="KbIHMXOwM4G_5358gfrq-15" value="validationContexts" style="whiteSpace=wrap;html=1;" parent="1" vertex="1">
          <mxGeometry x="-86.5" y="3433" width="120" height="60" as="geometry" />
        </mxCell>
        <mxCell id="KbIHMXOwM4G_5358gfrq-17" value="ValidationQueue" style="whiteSpace=wrap;html=1;" parent="1" vertex="1">
          <mxGeometry x="252" y="3433" width="120" height="60" as="geometry" />
        </mxCell>
        <mxCell id="KbIHMXOwM4G_5358gfrq-23" value="" style="shape=image;html=1;verticalAlign=top;verticalLabelPosition=bottom;labelBackgroundColor=#ffffff;imageAspect=0;aspect=fixed;image=https://cdn4.iconfinder.com/data/icons/ionicons/512/icon-ios7-trash-outline-128.png" parent="1" vertex="1">
          <mxGeometry x="-60" y="3578" width="67" height="67" as="geometry" />
        </mxCell>
        <mxCell id="KbIHMXOwM4G_5358gfrq-27" value="1) Update session id" style="html=1;verticalAlign=bottom;endArrow=block;curved=0;rounded=0;entryX=0;entryY=0;entryDx=0;entryDy=5;" parent="1" source="AuG3FRn_L_Xpiaep_0qI-59" target="KbIHMXOwM4G_5358gfrq-26" edge="1">
          <mxGeometry relative="1" as="geometry">
            <mxPoint x="368" y="1781" as="sourcePoint" />
          </mxGeometry>
        </mxCell>
        <mxCell id="KbIHMXOwM4G_5358gfrq-28" value="return" style="html=1;verticalAlign=bottom;endArrow=open;dashed=1;endSize=8;curved=0;rounded=0;exitX=0;exitY=1;exitDx=0;exitDy=-5;" parent="1" source="KbIHMXOwM4G_5358gfrq-26" target="AuG3FRn_L_Xpiaep_0qI-59" edge="1">
          <mxGeometry relative="1" as="geometry">
            <mxPoint x="368" y="1851" as="targetPoint" />
          </mxGeometry>
        </mxCell>
        <mxCell id="KbIHMXOwM4G_5358gfrq-30" value="2) Update application id" style="html=1;verticalAlign=bottom;endArrow=block;curved=0;rounded=0;entryX=0;entryY=0;entryDx=0;entryDy=5;" parent="1" source="AuG3FRn_L_Xpiaep_0qI-59" target="KbIHMXOwM4G_5358gfrq-29" edge="1">
          <mxGeometry relative="1" as="geometry">
            <mxPoint x="368" y="1833" as="sourcePoint" />
          </mxGeometry>
        </mxCell>
        <mxCell id="KbIHMXOwM4G_5358gfrq-31" value="return" style="html=1;verticalAlign=bottom;endArrow=open;dashed=1;endSize=8;curved=0;rounded=0;exitX=0;exitY=1;exitDx=0;exitDy=-5;" parent="1" source="KbIHMXOwM4G_5358gfrq-29" target="AuG3FRn_L_Xpiaep_0qI-59" edge="1">
          <mxGeometry relative="1" as="geometry">
            <mxPoint x="368" y="1903" as="targetPoint" />
          </mxGeometry>
        </mxCell>
        <mxCell id="KbIHMXOwM4G_5358gfrq-34" value="return" style="html=1;verticalAlign=bottom;endArrow=open;dashed=1;endSize=8;curved=0;rounded=0;exitX=0;exitY=1;exitDx=0;exitDy=-5;" parent="1" source="KbIHMXOwM4G_5358gfrq-32" target="AuG3FRn_L_Xpiaep_0qI-46" edge="1">
          <mxGeometry x="0.6067" relative="1" as="geometry">
            <mxPoint x="368" y="1958" as="targetPoint" />
            <mxPoint as="offset" />
          </mxGeometry>
        </mxCell>
        <mxCell id="KbIHMXOwM4G_5358gfrq-33" value="2. Update the task status" style="html=1;verticalAlign=bottom;endArrow=block;curved=0;rounded=0;entryX=0;entryY=0;entryDx=0;entryDy=5;" parent="1" source="AuG3FRn_L_Xpiaep_0qI-46" target="KbIHMXOwM4G_5358gfrq-32" edge="1">
          <mxGeometry x="-0.5899" y="2" relative="1" as="geometry">
            <mxPoint x="368" y="1888" as="sourcePoint" />
            <mxPoint as="offset" />
          </mxGeometry>
        </mxCell>
        <mxCell id="TLrPw7dI0EC6EL-AitkG-5" value="return" style="html=1;verticalAlign=bottom;endArrow=open;dashed=1;endSize=8;curved=0;rounded=0;" edge="1" parent="1" target="AuG3FRn_L_Xpiaep_0qI-35">
          <mxGeometry relative="1" as="geometry">
            <mxPoint x="-66" y="1724" as="sourcePoint" />
            <mxPoint x="-146" y="1724" as="targetPoint" />
          </mxGeometry>
        </mxCell>
      </root>
    </mxGraphModel>
  </diagram>
</mxfile>
